<svg fill="#000000" xmlns="http://www.w3.org/2000/svg"  viewBox="0 0 24 24" width="48px" height="48px"><path d="M 22 6 L 21.210938 6 C 20.914063 6 20.5 6.429688 20.5 6.703125 L 20.5 17.351563 C 20.5 17.625 20.914063 18 21.210938 18 L 22 18 L 22 20 L 15 20 L 15 18 L 16 18 L 16 8 L 13 20 L 10.046875 20 L 7 8 L 7 18 L 8 18 L 8 20 L 2 20 L 2 18 L 3 18 C 3.316406 18 3.730469 17.625 3.730469 17.351563 L 3.730469 6.703125 C 3.730469 6.429688 3.316406 6 3 6 L 2 6 L 2 4 L 10 4 L 12 13 L 14 4 L 22 4 Z"/></svg>